<?xml version="1.0" encoding="utf-8"?>
<!-- Generator: Adobe Illustrator 27.5.0, SVG Export Plug-In . SVG Version: 6.00 Build 0)  -->
<svg version="1.1" id="Layer_1" xmlns="http://www.w3.org/2000/svg" xmlns:xlink="http://www.w3.org/1999/xlink" x="0px" y="0px"
	 viewBox="0 0 28 48" style="enable-background:new 0 0 28 48;" xml:space="preserve">
<style type="text/css">
	.st0{fill-rule:evenodd;clip-rule:evenodd;fill:#FFFFFF;}
</style>
<path class="st0" d="M20.7,36.8c3.2-3.5,6.4-7.5,6.4-12.1C27.1,12.7,8.7,8,11.6,0c-1.1,1.3-2.6,3.4-2.6,5.5c0,5.2,9.5,9,13.4,14.9
	h-13C8.6,20.4,8,21,8,21.7c0,0.7,0.6,1.4,1.3,1.4h14.3c0.2,0.8,0.4,1.5,0.4,2.4c0,1.3-0.5,2.7-1.1,4h-7.8c-0.7,0-1.3,0.6-1.3,1.4
	c0,0.7,0.6,1.4,1.3,1.4h6.5C20.8,33.8,20.2,35.4,20.7,36.8z"/>
<path class="st0" d="M17.5,5.7C16.1,5.7,15,4.5,15,3s1.1-2.7,2.5-2.7c1.4,0,2.5,1.2,2.5,2.7S18.9,5.7,17.5,5.7z"/>
<path class="st0" d="M10.9,47c-1.4,0-2.5-1.2-2.5-2.7c0-1.5,1.1-2.7,2.5-2.7c1.4,0,2.5,1.2,2.5,2.7C13.4,45.8,12.3,47,10.9,47z"/>
<path class="st0" d="M7.3,11.2c-3.2,3.5-6.4,7.5-6.4,12.1c0,12,18.4,16.7,15.6,24.8c1.1-1.3,2.6-3.4,2.6-5.5c0-5.2-9.5-9-13.4-14.9
	h13c0.7,0,1.3-0.6,1.3-1.4s-0.6-1.4-1.3-1.4H4.3C4.1,24.2,4,23.4,4,22.6c0-1.3,0.5-2.7,1.1-4h7.8c0.7,0,1.3-0.6,1.3-1.4
	s-0.6-1.4-1.3-1.4H6.4C7.2,14.2,7.8,12.6,7.3,11.2z"/>
</svg>
